<?xml version="1.0" standalone="no"?>
<!DOCTYPE svg PUBLIC "-//W3C//DTD SVG 20010904//EN"
 "http://www.w3.org/TR/2001/REC-SVG-20010904/DTD/svg10.dtd">
<svg version="1.0" xmlns="http://www.w3.org/2000/svg"
 width="2048.000000pt" height="2048.000000pt" viewBox="0 0 2048.000000 2048.000000"
 preserveAspectRatio="xMidYMid meet">
<metadata>
Created by potrace 1.14, written by Peter Selinger 2001-2017
</metadata>
<g transform="translate(0.000000,2048.000000) scale(0.100000,-0.100000)"
fill="#000000" stroke="none">
<path d="M0 10240 l0 -10240 10240 0 10240 0 0 10240 0 10240 -10240 0 -10240
0 0 -10240z m8865 8850 c799 -71 1413 -234 2050 -544 492 -240 856 -492 1219
-846 308 -300 508 -557 740 -949 238 -403 484 -967 601 -1379 7 -23 6 -23 -52
-17 -32 3 -242 17 -468 30 -225 14 -520 32 -655 41 -135 8 -335 21 -445 27
l-199 12 -32 125 c-228 903 -709 1554 -1529 2071 -137 87 -452 245 -614 308
-663 261 -1417 375 -2361 358 -295 -6 -751 -26 -925 -42 -33 -3 -220 -19 -415
-36 -309 -26 -374 -34 -500 -65 -409 -100 -867 -258 -1265 -439 -93 -42 -178
-82 -189 -87 -82 -44 140 118 349 255 327 213 803 454 1240 627 846 335 1659
512 2585 564 123 7 745 -3 865 -14z m4000 -1113 c656 -395 1326 -1169 1901
-2198 114 -205 273 -519 265 -523 -3 -1 -107 4 -231 11 -124 8 -319 19 -435
26 l-209 12 -23 85 c-178 654 -423 1241 -731 1750 -170 280 -384 559 -662 861
l-85 92 55 -28 c30 -15 100 -55 155 -88z m-1195 -3157 c355 -22 1003 -63 1440
-90 437 -28 1153 -73 1590 -100 1052 -66 957 -57 969 -89 5 -14 71 -183 146
-376 165 -422 336 -860 535 -1370 81 -209 204 -524 273 -700 151 -386 407
-1043 562 -1440 259 -663 541 -1388 788 -2020 69 -176 197 -504 285 -730 88
-225 169 -433 180 -460 l20 -50 -235 -565 c-129 -311 -236 -566 -238 -568 -1
-1 -589 336 -1305 749 -717 414 -1310 752 -1318 753 -8 1 -75 -104 -169 -267
-131 -226 -154 -271 -142 -281 8 -8 498 -292 1089 -634 591 -341 1191 -687
1333 -768 141 -82 257 -152 257 -155 0 -8 -157 -216 -168 -223 -5 -3 -49 -1
-98 4 -49 5 -285 27 -524 50 -239 22 -529 49 -645 60 -115 11 -282 27 -370 35
l-160 15 -585 282 c-322 155 -657 316 -745 358 -88 43 -410 198 -715 345 -305
147 -575 273 -600 281 -84 25 -244 46 -350 46 -215 -1 -344 -66 -488 -245 -98
-123 -603 -646 -1697 -1757 -166 -168 -607 -615 -980 -995 -374 -379 -1088
-1102 -1586 -1605 -498 -503 -1073 -1085 -1279 -1293 l-373 -377 -2863 0
-2864 0 0 5045 0 5045 38 0 c20 0 129 -5 242 -10 113 -5 484 -21 825 -35 341
-14 886 -37 1210 -50 325 -14 772 -32 995 -41 l405 -17 820 282 c451 156 883
304 960 331 77 27 574 198 1105 380 531 183 970 335 976 339 6 3 97 101 203
216 106 116 199 211 207 213 25 6 432 -218 694 -381 215 -134 424 -278 675
-467 124 -93 253 -182 288 -199 144 -69 277 -84 445 -52 257 49 466 143 722
325 79 55 470 363 470 370 0 3 -74 488 -149 976 -28 179 -73 471 -100 650 -85
555 -132 855 -134 856 -1 1 -174 59 -384 128 -211 70 -383 130 -383 133 0 3
38 46 84 97 83 90 85 91 128 89 23 -2 333 -21 688 -43z m-2595 -440 c237 -14
393 -27 585 -51 l165 -20 560 -186 c308 -102 565 -190 571 -197 6 -6 68 -384
137 -841 70 -456 130 -846 133 -866 5 -32 2 -42 -30 -77 -72 -80 -264 -194
-406 -242 -79 -27 -216 -38 -249 -20 -13 6 -82 56 -155 109 -285 212 -591 404
-845 531 -203 102 -366 168 -691 278 -146 50 -319 113 -385 142 -357 152 -717
416 -1169 852 l-149 144 62 66 c102 109 227 182 431 248 334 110 898 161 1435
130z m8791 -339 c238 -44 497 -136 774 -275 153 -77 342 -187 347 -202 2 -5
-27 -28 -64 -50 -38 -23 -198 -120 -358 -216 -159 -96 -537 -324 -839 -507
-302 -182 -552 -328 -557 -324 -4 4 -18 37 -32 73 -29 74 -293 749 -368 943
l-50 128 45 62 c50 71 170 189 236 234 106 71 246 126 385 148 118 19 334 13
481 -14z m-3436 -8498 c179 -85 516 -250 750 -367 l425 -211 532 -5 533 -5
-133 -220 c-124 -206 -133 -226 -156 -320 -13 -55 -103 -422 -199 -815 l-176
-715 -6 -593 -5 -593 -338 247 c-186 135 -341 243 -345 240 -5 -6 82 -1222 94
-1293 3 -18 1 -33 -3 -33 -4 0 -31 35 -59 78 -29 42 -192 284 -364 537 -171
253 -372 550 -447 661 l-134 201 -25 144 c-83 482 -193 1103 -320 1799 -80
437 -166 908 -190 1045 -25 138 -56 311 -70 385 -13 74 -24 138 -24 142 0 4
75 -29 168 -73 92 -45 313 -151 492 -236z m-2149 10 c1 -93 4 -407 8 -700 5
-404 3 -529 -6 -520 -12 13 -512 844 -516 857 -2 9 494 528 506 529 4 1 8 -74
8 -166z m-737 -625 c3 -18 8 -63 11 -100 3 -37 16 -190 30 -340 13 -150 47
-534 75 -853 l51 -580 -112 -457 c-62 -252 -116 -458 -119 -458 -4 0 -60 173
-125 384 -66 211 -122 383 -125 381 -3 -2 -73 -177 -156 -389 -82 -212 -151
-386 -154 -386 -3 0 -46 121 -97 268 -95 277 -165 482 -356 1032 -90 259 -111
328 -102 342 6 9 249 259 541 555 292 296 550 559 573 586 24 26 47 47 52 47
4 0 10 -15 13 -32z"/>
<path d="M12910 12689 c-66 -11 -202 -52 -265 -79 -31 -13 -45 -25 -45 -38 0
-31 84 -282 115 -342 53 -105 182 -247 312 -342 217 -160 528 -248 774 -219
155 18 285 83 340 170 35 54 37 104 10 182 -114 332 -402 566 -806 655 -85 18
-358 27 -435 13z"/>
<path d="M16870 7976 c-123 -118 -226 -219 -228 -224 -2 -6 167 -188 374 -406
l377 -396 139 133 c77 72 181 171 231 218 l92 86 -40 44 c-34 39 -439 466
-646 681 l-74 78 -225 -214z"/>
</g>
</svg>
